<?xml version="1.0" standalone="no"?>
<!DOCTYPE svg PUBLIC "-//W3C//DTD SVG 20010904//EN"
 "http://www.w3.org/TR/2001/REC-SVG-20010904/DTD/svg10.dtd">
<svg version="1.0" xmlns="http://www.w3.org/2000/svg"
 width="240.000000pt" height="240.000000pt" viewBox="0 0 240.000000 240.000000"
 preserveAspectRatio="xMidYMid meet">
<metadata>
Created by potrace 1.16, written by Peter Selinger 2001-2019
</metadata>
<g transform="translate(0.000000,240.000000) scale(0.100000,-0.100000)"
fill="#000000" stroke="none">
<path d="M216 1580 l-34 -30 -6 25 c-5 19 -12 25 -24 21 -9 -2 -31 -7 -48 -11
l-31 -6 24 -137 c48 -275 86 -383 170 -484 57 -67 67 -73 98 -52 l24 16 -48
48 c-27 27 -62 75 -78 107 -27 55 -28 65 -28 193 0 130 1 137 30 195 44 87 83
105 229 105 124 -1 283 -14 366 -31 155 -32 196 -226 88 -419 -66 -117 -127
-171 -225 -197 -57 -15 -73 -25 -73 -51 0 -10 11 -12 48 -6 115 16 215 80 267
167 13 23 42 85 63 137 109 262 109 335 0 391 -80 41 -155 49 -475 49 l-302 0
-35 -30z"/>
<path d="M1700 1599 c-103 -6 -216 -26 -339 -59 l-41 -11 0 -172 0 -173 39
-80 c72 -148 146 -206 306 -240 107 -22 264 -23 336 -1 80 24 131 65 157 125
37 86 83 282 89 378 5 82 3 97 -17 139 -39 80 -70 91 -300 98 -63 2 -167 0
-230 -4z m380 -84 c77 -45 108 -184 76 -339 -32 -157 -97 -252 -188 -277 -56
-15 -218 -15 -293 1 -109 22 -174 67 -219 150 -47 86 -54 130 -44 270 5 69 11
130 13 136 4 12 142 58 220 73 28 5 129 9 225 8 155 -2 179 -4 210 -22z"/>
</g>
</svg>
